<svg xmlns="http://www.w3.org/2000/svg" id="Layer_1" width="160" height="294.6">
  <style>
    .st0{fill:#FFFFFF;}
  </style>
  <g id="XMLID_17_">
    <path id="XMLID_29_" d="M90 199.6v-6l-24.2 2.9z" class="st0"/>
    <path id="XMLID_28_" d="M73.7 222.5H62.3c-2.5 0-3.8 1.1-3.8 3.3v4.7h19.7v-4.2c0-2.3-1.7-3.8-4.5-3.8z" class="st0"/>
    <path id="XMLID_18_" d="M126.4 283.6V0h-.2C81.3 14.3 50.3 20.9.3 28.7v11.9c11.9-1.9 23.2-3.8 33.3-5.6v248.6H0v11h160v-11h-33.6zM52.9 63.5l27.9-8.4 8.8-2.4H52.9v-5.5h54.3v4.3l-27.5 9.2-8.7 2.6h36.2v5.5H52.9v-5.3zm0 18.4h54.3v6H52.9v-6zm0 23.8h48.7v-11h5.6v16.9H52.9v-5.9zm0 29.5h28.4L52.9 126v-5.8l23.4 8.3 30.9-8.5v6.1l-24.1 6.1 9.1 2.9h15v5.9H52.9v-5.8zm0 35.2l27.9-8.4 8.8-2.4H52.9V154h54.3v4.3l-27.5 9.2-8.7 2.6h36.2v5.5H52.9v-5.2zm0 22.9l54.3-7.9v6l-11.7 1.5v7.5l11.7 1.7v5.5l-54.3-8.2v-6.1zm54.3 69H52.9v-16.9h5.4v10.9H77v-8.6h5.3v8.6h25v6zm.5-45.5c0 3.9-1.3 5.5-5.9 5.5h-14c-2.8 0-4.5 1.3-4.5 3.8v4.5h23.9v6H52.9v-10.8c0-5.1 2.5-9.1 9.8-9.1H73c4 0 6.7 1.1 7.7 4.6 1.1-3.3 4.2-4.7 7.7-4.7h13.1c1.5 0 2.1-.3 2.1-1.5h4v1.7z" class="st0"/>
  </g>
</svg>
