<svg xmlns="http://www.w3.org/2000/svg" id="Layer_1" width="650.4" height="213.4">
  <style>
    .st0{fill:#FFFFFF;}
  </style>
  <path d="M484.4 0c21.8 0 29.2 15 29.2 23.5 0 8.6-4.5 15.6-12.8 18.4v.2c10.4 2.4 16.4 10.4 16.4 21.4 0 18.4-16.5 27.5-32.8 27.5-16.9 0-33.2-8.5-33.2-27.4 0-11.1 6.2-19 16.5-21.5v-.2c-8.5-2.4-12.9-9.4-12.9-18C454.9 8.1 470.1 0 484.4 0zm.1 77.6c8.5 0 15-6 15-14.8 0-8.4-6.8-14-15-14-8.6 0-15.5 4.9-15.5 13.9s7 14.9 15.5 14.9zm-.1-40.6c7.2 0 13.1-4 13.1-11.5 0-4.5-2.1-12.1-13.1-12.1-7.1 0-13.4 4.4-13.4 12.1 0 7.6 6.2 11.5 13.4 11.5zM581.1 17c-18.4 16-28.4 48.9-28.6 72.2h-19c2-25.9 12.8-51 29.4-71h-41.5V1.8h59.8V17zM618.1 0c17.5 0 32.2 11 32.2 45.1 0 34.9-14.8 45.9-32.2 45.9-17.2 0-32-11-32-45.9 0-34.1 14.8-45.1 32-45.1zm0 76.4c14.5 0 14.5-21.4 14.5-31.2 0-9.1 0-30.5-14.5-30.5-14.2 0-14.2 21.4-14.2 30.5 0 9.8 0 31.2 14.2 31.2zM0 122h19.6v34.2h36.1V122h19.6v89.2H55.8v-38.5H19.6v38.5H0V122zM117 122h20.1l33.4 89.2h-20.4l-6.8-19.9H110l-7 19.9H83.1L117 122zm-1.9 54.8h23.1L127 144h-.2l-11.7 32.8zM178.2 122h48.1c16 0 26.1 11.1 26.1 24.6 0 10.5-4.2 18.4-14.1 22.4v.2c9.6 2.5 12.4 11.9 13 20.9.4 5.6.2 16.1 3.8 21.1h-19.6c-2.4-5.6-2.1-14.2-3.1-21.4-1.4-9.4-5-13.5-14.9-13.5h-19.6v34.9h-19.6V122zm19.7 40.4h21.5c8.8 0 13.5-3.8 13.5-12.8 0-8.6-4.8-12.4-13.5-12.4h-21.5v25.2zM266 122h48.1c16 0 26.1 11.1 26.1 24.6 0 10.5-4.2 18.4-14.1 22.4v.2c9.6 2.5 12.4 11.9 13 20.9.4 5.6.2 16.1 3.8 21.1h-19.6c-2.4-5.6-2.1-14.2-3.1-21.4-1.4-9.4-5-13.5-14.9-13.5h-19.6v34.9H266V122zm19.6 40.4h21.5c8.8 0 13.5-3.8 13.5-12.8 0-8.6-4.8-12.4-13.5-12.4h-21.5v25.2zM356.2 122h19.6v89.2h-19.6V122zM404 181.6c0 11.9 9.2 16.5 19.8 16.5 6.9 0 17.4-2 17.4-11.1 0-9.6-13.4-11.2-26.5-14.8-13.2-3.5-26.6-8.6-26.6-25.4 0-18.2 17.2-27 33.4-27 18.6 0 35.8 8.1 35.8 28.8h-19c-.6-10.8-8.2-13.5-17.6-13.5-6.2 0-13.5 2.6-13.5 10.1 0 6.9 4.2 7.8 26.6 13.5 6.5 1.6 26.5 5.8 26.5 26 0 16.4-12.9 28.6-37.1 28.6-19.8 0-38.2-9.8-38-31.8H404zM511.7 119.9c27.6 0 43.9 20.6 43.9 47.1 0 25.8-16.2 46.4-43.9 46.4s-43.9-20.6-43.9-46.4c.1-26.5 16.3-47.1 43.9-47.1zm0 77c17.6 0 24.2-15 24.2-29.9 0-15.6-6.6-30.6-24.2-30.6s-24.2 15-24.2 30.6c0 14.9 6.6 29.9 24.2 29.9zM569 122h19.5l37.2 59.9h.2V122h18.4v89.2h-19.6l-37.1-59.8h-.2v59.8H569V122z" class="st0"/>
</svg>
