<svg xmlns="http://www.w3.org/2000/svg" id="Layer_1" width="548" height="477.9">
  <style>
    .st0{fill:#FFFFFF;}
  </style>
  <path d="M400.5 9l-49.3 49.3c.7 1.1 1.4 2.2 2 3.4l47.3-47.3V9zm0 89.9l-40.7 40.7c.7 1.1 1.4 2.2 2 3.4l38.7-38.7v-5.4zM347.2 53l53-53h-5.4l-50.2 50.2c.9.9 1.8 1.8 2.6 2.8zm53.3-14l-42 42c.1 1.7.2 3.4.2 5.2l41.8-41.8V39zm0 45.1l-47.3 47.3c.9.9 1.7 1.8 2.6 2.8l44.7-44.7v-5.4zm0-15.2l-55.7 55.7c1.1.6 2.2 1.3 3.3 2.2l52.4-52.4v-5.5zm0-14.8l-42.8 42.8c-.6 2.8-1.3 5.3-2.3 7.7l45.1-45.1v-5.4zm-61.4-8.2L385 0h-5.4l-43.8 43.8c1.2.6 2.3 1.3 3.3 2.1zm61.4-21.7l-44.4 44.4 1.2 4.2 43.2-43.2v-5.4zM244.4 36l36-36H275l-36 36h5.4zm85.1 4.7L370.2 0h-5.4l-39.2 39.2 3.9 1.5zM229.2 36l36-36h-5.4l-36 36h5.4zm-14.8 0l36-36H245l-36 36h5.4zm44.8 0l36-36h-5.4l-36 36h5.4zm58.6 1.2L355.1 0h-5.4l-36.5 36.5c1.5.2 3.1.4 4.6.7zM304.3 36l36-36h-5.4l-36 36h5.4zm-15.2 0l36-36h-5.4l-36 36h5.4zm-14.8 0l36-36h-5.4l-36 36h5.4zM226 144.2l5.2-5.2H226v5.2zm0 44.8l49.9-49.9h-5.4L226 183.6v5.4zm0-14.8l35.1-35.1h-5.4L226 168.7v5.5zm78.7-35.2h-4.2l-54.1 54.1h5.4l54.1-54.1h-1.2zM226 159l20-20h-5.4L226 153.6v5.4zm28.5 61.4h-5.4l-48.2 48.2 3 2.4 50.6-50.6zM155.2 0v5.3l5.3-5.3h-5.3zm111.9 112.5h5.4l47.7-47.7c-1.2-.6-2.5-1.1-4-1.5l-49.1 49.2zM303 61.8l-50.7 50.7h5.4L308.2 62c-1.2-.1-2.3-.1-3.6-.1H303zm-65.8 50.7h5.4l50.7-50.7h-5.4l-50.7 50.7zm163.3 16.3L367.4 162c.1 1.6.2 3.2.2 4.8v.4l32.9-32.9v-5.5zm0 15.2l-33.9 33.9c-.5 2.5-1.1 5-1.9 7.3l35.8-35.8V144zm-65.7 71.2c-2.6 1-5.2 1.9-8 2.6l-79.5 79.5c1.3.6 2.5 1.2 3.7 1.7l83.8-83.8zm-19.9 4.7c-1.9.2-3.9.3-5.8.4l-71.9 71.9 3.6 1.8 74.1-74.1zM400.5 114l-35.8 35.8c.5 1.3.9 2.7 1.3 4.2l34.5-34.5V114zm-70 30.4c-1.1-.7-2.3-1.3-3.6-1.8l-50.6 50.6h5.4l48.8-48.8zm-10.8-4c-1.5-.3-3-.6-4.7-.8l-53.5 53.5h5.4l52.8-52.7zm-120.2 30.4v-5.4L158 206.8c.4 1.4.7 2.8 1.2 4.2l40.3-40.2zm100.1 49.6h-5.4L227.6 287c1.2.7 2.3 1.3 3.4 2l68.6-68.6zm-78.1 62.9l62.9-62.9H279l-60.8 60.8 3.3 2.1zm-22-67.8v-5.4L172 237.6c.7 1.1 1.5 2.2 2.2 3.2l25.3-25.3zm64.7 4.9l-54.8 54.8c1.1.8 2.1 1.5 3.2 2.2l57-57h-5.4zm-39.7 0h-5.4l-33.9 33.8c.9.9 1.8 1.8 2.7 2.8l36.6-36.6zm-14.8 0h-5.4l-25.9 25.9c.8 1 1.6 2 2.5 3l28.8-28.9zm72.6-107.9h5.4l40.9-40.9c-.7-1.1-1.5-2.1-2.5-3l-43.8 43.9zm-42.6 107.9h-5.4l-41.4 41.4c.9.9 1.9 1.7 2.9 2.6l43.9-44zM226 63.7v5.4l7.3-7.3h-5.4l-1.9 1.9zm169.5 150.7c.9-2.5 1.6-5.1 2.3-7.7L306 298.5c3.4-1.5 6.9-3.3 10.6-5.1l78.9-79zM226 84.3l22.5-22.5h-5.4l-17 17v5.5zm-26.5 101.3v-5.4L161.6 218c.5 1.3 1 2.6 1.6 3.8l36.3-36.2zm201-26.8l-143 143.1c1.3.6 2.6 1.1 3.8 1.6l139.2-139.2v-5.5zm-201 41.9v-5.4l-33.1 33.1c.6 1.2 1.3 2.3 1.9 3.5l31.2-31.2zM226 99.1l37.3-37.3h-5.4L226 93.7v5.4zm71.1 13.4h5.4l29.6-29.6c-.1-1.6-.4-3.2-.7-4.7l-34.3 34.3zm-97.6 37.7l-43.7 43.7.6 4.8 43.1-43.1v-5.4zm201 23.7L268.3 306.2c1.5.6 2.8 1 4 1.4l128.3-128.3v-5.4zm-73.4-70.8c2.1-2.7 3.5-6 4.4-9.8l-18.3 18.3c3.8-.9 7.1-2.4 9.8-4.4l4.1-4.1zm44.8 149.6c5.9-6.4 11.2-13.4 15.6-21L339 280.3c8.2-5.4 16.5-11.6 24.1-18.7l8.8-8.9zM226 112.5h1.8l50.7-50.7H273l-47 47v3.7zm-26.5-67l-44.2 44.2v5.4l44.2-44.2v-5.4zm0 14.8l-44.2 44.2v5.4l44.2-44.2v-5.4zm0 30l-44.2 44.2v5.4l44.2-44.2v-5.4zM340 174.6l-15.8 15.8c8.5-2.9 13.7-8.3 15.8-15.8zM199.5 75.5l-44.2 44.2v5.4l44.2-44.2v-5.4zM215 0l-59.8 59.8v5.4L220.4 0H215zm-29.9 0l-29.8 29.8v5.4L190.5 0h-5.4zm14.8 0l-44.7 44.7v5.4L205.3 0h-5.4zm29.9 0l-74.6 74.6V80l80-80h-5.4zm110.6 159l-34.1 34.1c2 0 3.9-.1 5.7-.3l29-29c-.1-1.7-.3-3.3-.6-4.8zm-140.9-53.6l-44.2 44.2v5.4l44.2-44.2v-5.4zM169.9 0l-14.7 14.7v5.4L175.3 0h-5.4zm61.7 193.1h5.4l54.1-54.1h-5.4l-54.1 54.1zm168.8-4.2L280.7 308.6c1.9-.7 4.8-1.7 8.4-3l110.8-110.8c.2-1.9.4-3.9.5-5.9zm-108.9 4.2h5.4L338 152c-.6-1.1-1.4-2.2-2.2-3.2l-44.3 44.3zm-92-72.9l-44.2 44.2v5.4l44.2-44.2v-5.4zm0 20.6v-5.4l-44.2 44.2v5.4l44.2-44.2zm-139.8 276v-1.1c9.6-2.8 26.2-7.6 26.2-24.4 0-19.1-19.2-29-41.6-29-3.5 0-6.9.2-10.4.3-3.5.2-6.9.3-10.4.3H0v1.7h14.2v108.7H0v1.7h28.2c3.8 0 7.4.2 11.2.3 3.6.2 7.4.3 11 .3 19.4 0 42.9-4.6 42.9-28.7 0-19.2-16.9-27.1-33.6-30.1zm-26-52.1c4.7-.3 9.9-.6 11.5-.6 15.9 0 21.1 4.3 21.1 26.9 0 21.4-5 24.9-15.8 24.9H33.7v-51.2zM50.4 474c-5 0-12.6-.5-16.7-.9v-55.5h17c11.3 0 21.4 1.7 21.4 28.2.1 26.9-12.1 28.2-21.7 28.2zm313.1-97.8L434 476.4h1.3V364.7h14.2V363h-30.1v1.7h14.2V442L378 362.9h-30.4v1.7h14.2v108.7h-14.2v1.7h30.2v-1.7h-14.3v-97.1zM546.7 443c-5.7 23.9-18.6 33.2-35.3 33.2-12.9 0-20.3-4.7-24.1-13.7-4.1-9.6-5-19.7-5-42.5 0-14.7.9-36.4 6.6-46.2 2.7-4.6 8.3-12 22.7-12 19.7 0 28.5 18 32.3 35h1.3V364h-1.3c-.9 1.7-1.9 3-4.7 3-1.3 0-3.3-.2-8.5-2.2-8.2-3.2-12.3-4.7-19.2-4.7-22.2 0-51.5 22.5-51.5 61.3 0 35.1 23.2 56.6 52.3 56.6 8.3 0 16.2-2 18.4-2.5 5.5-1.6 7.4-2.1 9.9-2.1 3.9 0 5 1.4 6.1 2.8h1.3V443h-1.3zm-394 30.4h-10.9V364.7h14.3V363H108v1.7h14.2v108.7H108v1.7h90v-35.8h-1.3c-4.1 21.5-22.8 34.1-44 34.1zm121.8-114.7h-1.3l-45.5 114.7h-11.2v1.7h26.9v-1.7h-13.6l15.4-39.5H284l15.3 39.5h-15.1v1.7h47.6v-1.7h-11.3l-46-114.7zm-28.3 73.4l18.4-46.8 18.6 46.8h-37z" class="st0"/>
</svg>
