<svg xmlns="http://www.w3.org/2000/svg" id="Layer_1" width="360" height="360">
  <style>
    .st0{fill:#B1B3B6;} .st1{fill:#FFFFFF;}
  </style>
  <path d="M.4-.2H360v359.6H.4z" class="st0"/>
  <path d="M42.7 162.8v77.3h4.6v-38.7h29.4V197H47.3v-29.8h34.5v72.9h4.6V162.8h-4.6zM224.7 201.3H255v-4.4h-30.3v-29.7h37.7v68.6h-37.7v-34.5zm-42 34.5v-34.5H213v-4.4h-30.3v-29.7h37.5v68.6h-37.5zm130.4-73v68.3l-46.7-68.3H97.9v77.3h4.6v-38.8h29.4V197h-29.4v-29.8H150.7v72.9h4.6v-72.9h22.9v72.9h88.9v-68.9l46.7 68.9h4v-77.3h-4.7z"/>
  <path d="M42.7 317.4h4.6v-38.7h29.4v-4.4H47.3v-29.8h34.5v72.9h4.6v-77.3H42.7zM182.7 274.2v-29.7h37.5v68.6h-37.5v-34.5H213v-4.4h-30.3zm42 0v-29.7h37.7v68.6h-37.7v-34.5H255v-4.4h-30.3zm88.4-34.1v68.3l-46.7-68.3H97.9v77.3h4.6v-38.8h29.4v-4.4h-29.4v-29.8h48.1v72.9h4.6v-72.9h22.9v72.9h88.8v-68.9l46.7 68.9h4V240h-4.5z" class="st1"/>
</svg>
