<?xml version="1.0" encoding="utf-8"?>
<!-- Generator: Adobe Illustrator 21.0.2, SVG Export Plug-In . SVG Version: 6.00 Build 0)  -->
<svg version="1.1" xmlns="http://www.w3.org/2000/svg" xmlns:xlink="http://www.w3.org/1999/xlink" x="0px" y="0px"
	 width="2418.1px" height="1526.3px" viewBox="0 0 2418.1 1526.3" style="enable-background:new 0 0 2418.1 1526.3;"
	 xml:space="preserve">
<style type="text/css">
	.st0{opacity:0.3;enable-background:new    ;}
	.st1{fill:none;stroke:#00B1D0;stroke-miterlimit:10;}
	.st2{fill:none;}
	.st3{fill:#00B1D0;}
	.st4{font-family:'Helvetica-Light';}
	.st5{font-size:12px;}
</style>
<g id="Layer_3">
	<rect x="2.4" y="0.5" class="st0" width="2410.7" height="1525.3"/>
	<line class="st1" x1="0.5" y1="0.7" x2="4.4" y2="1526.3"/>
	<line class="st1" x1="121.2" y1="0.7" x2="125" y2="1526.3"/>
	<line class="st1" x1="241.8" y1="0.7" x2="245.7" y2="1526.3"/>
	<line class="st1" x1="362.5" y1="0.7" x2="366.3" y2="1526.3"/>
	<line class="st1" x1="483.1" y1="0.7" x2="487" y2="1526.3"/>
	<line class="st1" x1="603.8" y1="0.7" x2="607.7" y2="1526.3"/>
	<line class="st1" x1="724.5" y1="0.7" x2="728.3" y2="1526.3"/>
	<line class="st1" x1="845.1" y1="0.7" x2="849" y2="1526.3"/>
	<line class="st1" x1="965.8" y1="0.7" x2="969.7" y2="1526.3"/>
	<line class="st1" x1="1086.5" y1="0.7" x2="1090.3" y2="1526.3"/>
	<line class="st1" x1="1207.1" y1="0.7" x2="1211" y2="1526.3"/>
	<line class="st1" x1="1327.8" y1="0.7" x2="1331.6" y2="1526.3"/>
	<line class="st1" x1="1448.4" y1="0.7" x2="1452.3" y2="1526.3"/>
	<line class="st1" x1="1569.1" y1="0.7" x2="1573" y2="1526.3"/>
	<line class="st1" x1="1689.8" y1="0.7" x2="1693.6" y2="1526.3"/>
	<line class="st1" x1="1810.4" y1="0.7" x2="1814.3" y2="1526.3"/>
	<line class="st1" x1="1931.1" y1="0.7" x2="1935" y2="1526.3"/>
	<line class="st1" x1="2051.7" y1="0.7" x2="2055.6" y2="1526.3"/>
	<line class="st1" x1="2172.4" y1="0.7" x2="2176.3" y2="1526.3"/>
	<line class="st1" x1="2293.1" y1="0.7" x2="2296.9" y2="1526.3"/>
	<line class="st1" x1="2413.7" y1="0.7" x2="2417.6" y2="1526.3"/>
	<line class="st1" x1="2.4" y1="76.8" x2="2413.1" y2="76.8"/>
	<line class="st1" x1="2.4" y1="153.1" x2="2413.1" y2="153.1"/>
	<line class="st1" x1="2.4" y1="229.5" x2="2413.1" y2="229.5"/>
	<line class="st1" x1="2.4" y1="305.8" x2="2413.1" y2="305.8"/>
	<line class="st1" x1="2.4" y1="382.1" x2="2413.1" y2="382.1"/>
	<line class="st1" x1="2.4" y1="458.4" x2="2413.1" y2="458.4"/>
	<line class="st1" x1="2.4" y1="534.8" x2="2413.1" y2="534.8"/>
	<line class="st1" x1="2.4" y1="611.1" x2="2413.1" y2="611.1"/>
	<line class="st1" x1="2.4" y1="687.4" x2="2413.1" y2="687.4"/>
	<line class="st1" x1="2.4" y1="763.7" x2="2413.1" y2="763.7"/>
	<line class="st1" x1="2.4" y1="840" x2="2413.1" y2="840"/>
	<line class="st1" x1="2.4" y1="916.4" x2="2413.1" y2="916.4"/>
	<line class="st1" x1="2.4" y1="992.7" x2="2413.1" y2="992.7"/>
	<line class="st1" x1="2.4" y1="1069" x2="2413.1" y2="1069"/>
	<line class="st1" x1="2.4" y1="1145.3" x2="2413.1" y2="1145.3"/>
	<line class="st1" x1="2.4" y1="1221.6" x2="2413.1" y2="1221.6"/>
	<line class="st1" x1="2.4" y1="1298" x2="2413.1" y2="1298"/>
	<line class="st1" x1="2.4" y1="1374.3" x2="2413.1" y2="1374.3"/>
	<line class="st1" x1="2.4" y1="1450.6" x2="2413.1" y2="1450.6"/>
	<rect x="2.4" y="0.5" class="st1" width="2410.7" height="1525.3"/>
</g>
<g id="Layer_2">
	<rect x="734.5" y="55.3" class="st2" width="24.4" height="10.7"/>
	<text transform="matrix(1 0 0 1 734.5002 63.9733)" class="st3 st4 st5">30%</text>
	<rect x="855.2" y="55.3" class="st2" width="24.4" height="10.7"/>
	<text transform="matrix(1 0 0 1 855.1501 63.9733)" class="st3 st4 st5">35%</text>
	<rect x="975.8" y="55.3" class="st2" width="24.4" height="10.7"/>
	<text transform="matrix(1 0 0 1 975.7501 63.9733)" class="st3 st4 st5">40%</text>
	<rect x="1096.5" y="55.3" class="st2" width="24.4" height="10.7"/>
	<text transform="matrix(1 0 0 1 1096.5001 63.9733)" class="st3 st4 st5">45%</text>
	<rect x="1217.8" y="55.3" class="st2" width="24.4" height="10.7"/>
	<text transform="matrix(1 0 0 1 1217.7501 63.9733)" class="st3 st4 st5">50%</text>
	<rect x="1337.8" y="55.3" class="st2" width="24.4" height="10.7"/>
	<text transform="matrix(1 0 0 1 1337.8002 63.9733)" class="st3 st4 st5">55%</text>
	<rect x="1458.4" y="55.3" class="st2" width="24.4" height="10.7"/>
	<text transform="matrix(1 0 0 1 1458.4001 63.9733)" class="st3 st4 st5">60%</text>
	<rect x="1579.1" y="55.3" class="st2" width="24.4" height="10.7"/>
	<text transform="matrix(1 0 0 1 1579.1001 63.9733)" class="st3 st4 st5">65%</text>
	<rect x="1699.8" y="55.3" class="st2" width="24.4" height="10.7"/>
	<text transform="matrix(1 0 0 1 1699.8002 63.9733)" class="st3 st4 st5">70%</text>
	<rect x="1820.4" y="55.3" class="st2" width="24.4" height="10.7"/>
	<text transform="matrix(1 0 0 1 1820.4001 63.9733)" class="st3 st4 st5">75%</text>
	<rect x="1941.1" y="55.3" class="st2" width="24.4" height="10.7"/>
	<text transform="matrix(1 0 0 1 1941.1001 63.9733)" class="st3 st4 st5">80%</text>
	<rect x="2061.7" y="55.3" class="st2" width="24.4" height="10.7"/>
	<text transform="matrix(1 0 0 1 2061.7002 63.9733)" class="st3 st4 st5">85%</text>
	<rect x="2182.4" y="55.3" class="st2" width="24.4" height="10.7"/>
	<text transform="matrix(1 0 0 1 2182.3999 63.9733)" class="st3 st4 st5">90%</text>
	<rect x="2303.1" y="55.3" class="st2" width="24.4" height="10.7"/>
	<text transform="matrix(1 0 0 1 2303.1001 63.9733)" class="st3 st4 st5">95%</text>
	<rect x="493" y="55.3" class="st2" width="24.4" height="10.7"/>
	<text transform="matrix(1 0 0 1 493.0002 63.9733)" class="st3 st4 st5">20%</text>
	<rect x="613.8" y="55.3" class="st2" width="24.4" height="10.7"/>
	<text transform="matrix(1 0 0 1 613.8002 63.9733)" class="st3 st4 st5">25%</text>
	<rect x="493" y="134.7" class="st2" width="24.4" height="10.7"/>
	<text transform="matrix(1 0 0 1 493.0002 143.3883)" class="st3 st4 st5">25%</text>
	<rect x="493" y="210.2" class="st2" width="24.4" height="10.7"/>
	<text transform="matrix(1 0 0 1 493.0002 218.8032)" class="st3 st4 st5">30%</text>
	<rect x="489.9" y="285.6" class="st2" width="24.4" height="10.7"/>
	<text transform="matrix(1 0 0 1 489.8936 294.2182)" class="st3 st4 st5">35%</text>
	<rect x="489.9" y="361" class="st2" width="24.4" height="10.7"/>
	<text transform="matrix(1 0 0 1 489.8936 369.6332)" class="st3 st4 st5">40%</text>
	<rect x="493" y="436.4" class="st2" width="24.4" height="10.7"/>
	<text transform="matrix(1 0 0 1 493.0002 445.0482)" class="st3 st4 st5">45%</text>
	<rect x="493" y="511.8" class="st2" width="24.4" height="10.7"/>
	<text transform="matrix(1 0 0 1 493.0002 520.4631)" class="st3 st4 st5">50%</text>
	<rect x="493" y="587.2" class="st2" width="24.4" height="10.7"/>
	<text transform="matrix(1 0 0 1 493.0002 595.8781)" class="st3 st4 st5">55%</text>
	<rect x="493" y="662.7" class="st2" width="24.4" height="10.7"/>
	<text transform="matrix(1 0 0 1 493.0002 671.2931)" class="st3 st4 st5">60%</text>
	<rect x="493" y="738.1" class="st2" width="24.4" height="10.7"/>
	<text transform="matrix(1 0 0 1 493.0002 746.7081)" class="st3 st4 st5">65%</text>
	<rect x="493" y="813.5" class="st2" width="24.4" height="10.7"/>
	<text transform="matrix(1 0 0 1 493.0002 822.123)" class="st3 st4 st5">70%</text>
	<rect x="493" y="888.9" class="st2" width="24.4" height="10.7"/>
	<text transform="matrix(1 0 0 1 493.0002 897.538)" class="st3 st4 st5">75%</text>
	<rect x="493" y="964.3" class="st2" width="24.4" height="10.7"/>
	<text transform="matrix(1 0 0 1 493.0002 972.953)" class="st3 st4 st5">80%</text>
	<rect x="493" y="1039.7" class="st2" width="24.4" height="10.7"/>
	<text transform="matrix(1 0 0 1 493.0002 1048.3679)" class="st3 st4 st5">85%</text>
	<rect x="493" y="1115.1" class="st2" width="24.4" height="10.7"/>
	<text transform="matrix(1 0 0 1 493.0002 1123.783)" class="st3 st4 st5">90%</text>
	<rect x="493" y="1190.6" class="st2" width="24.4" height="10.7"/>
	<text transform="matrix(1 0 0 1 493.0002 1199.1979)" class="st3 st4 st5">95%</text>
</g>
</svg>
