<?xml version="1.0" encoding="utf-8"?>
<!-- Generator: Adobe Illustrator 19.0.1, SVG Export Plug-In . SVG Version: 6.00 Build 0)  -->
<!DOCTYPE svg PUBLIC "-//W3C//DTD SVG 1.0//EN" "http://www.w3.org/TR/2001/REC-SVG-20010904/DTD/svg10.dtd">
<svg version="1.0" id="Layer_1" xmlns="http://www.w3.org/2000/svg" xmlns:xlink="http://www.w3.org/1999/xlink" x="0px" y="0px"
	 viewBox="0 0 253.3 45.1" enable-background="new 0 0 253.3 45.1" xml:space="preserve">
<g>
	<g>
		<path fill="#FFFFFF" d="M46.2,18.6h5.2c0.1,1.4,0.6,2.4,1.5,3.2c0.9,0.7,2.2,1.1,3.9,1.1c1.7,0,3.1-0.3,4-0.8
			c1-0.6,1.5-1.3,1.5-2.3c0-1-0.3-1.7-1.1-2.2c-0.7-0.5-2.1-0.9-4.4-1.4c-4.1-0.9-6.8-1.9-8.2-3c-1.4-1.1-2.1-2.7-2.1-4.9
			c0-2.5,0.9-4.5,2.7-6c0.8-0.7,1.8-1.2,2.9-1.6H39.5v18c0,2.7-0.7,4.7-2.1,6.1c-1.4,1.4-3.5,2-6.3,2c-3,0-5.2-0.7-6.5-2.3
			c-1.4-1.5-2-3.8-1.9-7V16h5.2v1.6c-0.1,1.6,0.2,2.8,0.7,3.6c0.5,0.8,1.3,1.2,2.5,1.2c1.1,0,1.9-0.3,2.3-0.8
			c0.5-0.6,0.7-1.5,0.7-2.8v-18H0v26.1h52.7c-1.4-0.4-2.6-1-3.6-1.8C47.3,23.6,46.3,21.4,46.2,18.6z"/>
		<path fill="#FFFFFF" d="M73.8,0.7h-13c1.1,0.4,2.1,0.9,2.9,1.6c1.8,1.5,2.8,3.6,3,6.2h-5.3c-0.1-1.2-0.6-2.2-1.6-2.9
			c-1-0.7-2.3-1.1-3.9-1.1c-1.4,0-2.4,0.3-3.2,0.9c-0.8,0.6-1.2,1.4-1.2,2.5c0,0.8,0.4,1.4,1.2,1.8c0.8,0.4,2.5,0.9,5.1,1.5
			c3.8,0.8,6.3,1.8,7.6,2.9c1.3,1.1,1.9,2.8,1.9,5.3c0,2.4-1,4.4-2.9,5.8c-1,0.7-2.2,1.3-3.5,1.6h12.8V0.7z"/>
	</g>
	<path fill="#FFFFFF" d="M94.8,8.3c-0.1-1.2-0.6-2.2-1.6-2.9c-1-0.7-2.2-1.1-3.8-1.1c-1.4,0-2.4,0.3-3.2,0.9
		c-0.8,0.6-1.1,1.4-1.1,2.5c0,0.8,0.4,1.4,1.2,1.8c0.8,0.4,2.5,0.9,5,1.5c3.7,0.8,6.2,1.8,7.4,2.9c1.2,1.1,1.9,2.8,1.9,5.2
		c0,2.4-0.9,4.3-2.8,5.7c-1.9,1.4-4.4,2.1-7.6,2.1c-3.2,0-5.7-0.7-7.6-2.2c-1.8-1.5-2.8-3.6-2.9-6.4h5.1c0.1,1.4,0.6,2.4,1.5,3.1
		c0.9,0.7,2.2,1.1,3.9,1.1c1.7,0,3-0.3,4-0.8c1-0.6,1.4-1.3,1.4-2.3c0-1-0.3-1.7-1-2.1c-0.7-0.5-2.1-0.9-4.3-1.4
		c-4-0.9-6.7-1.9-8.1-2.9c-1.4-1-2-2.7-2-4.9c0-2.5,0.9-4.4,2.7-5.9C84.6,0.7,87,0,90,0c2.8,0,5.2,0.8,7,2.3c1.8,1.5,2.8,3.5,3,6.1
		H94.8z"/>
	<path fill="#FFFFFF" d="M125.1,16.6c0,3.6-0.8,6.3-2.4,7.9c-1.6,1.6-4.2,2.4-7.9,2.4c-3.5,0-6.1-0.8-7.7-2.5
		c-1.7-1.7-2.5-4.3-2.5-7.8V0.7h2.6h2.7v16c0,1.8,0.4,3.2,1.2,4.1c0.8,0.9,2.1,1.4,3.7,1.4c1.8,0,3-0.4,3.8-1.3
		c0.8-0.8,1.1-2.2,1.1-4.2v-16h2.7h2.7V16.6z"/>
	<polygon fill="#FFFFFF" points="130.3,26.1 130.3,0.7 132.9,0.7 135.6,0.7 135.6,21.6 148.2,21.6 148.2,23.9 148.2,26.1 	"/>
	<polygon fill="#FFFFFF" points="151.9,26.1 151.9,0.7 154.6,0.7 157.2,0.7 157.2,21.6 169.9,21.6 169.9,23.9 169.9,26.1 	"/>
	<polygon fill="#FFFFFF" points="173.2,0.7 175.8,0.7 178.5,0.7 178.5,26.1 175.8,26.1 173.2,26.1 	"/>
	<polygon fill="#FFFFFF" points="181.4,0.7 184.2,0.7 187.1,0.7 192.7,20.1 192.7,20.1 198.2,0.7 201,0.7 203.7,0.7 195.1,26.1 
		192.6,26.1 190,26.1 	"/>
	<path fill="#FFFFFF" d="M213.7,16.6h6.8l-3.4-10.2h0L213.7,16.6z M214.1,0.7h3.1h3.1l9,25.5h-2.8h-2.8l-1.7-5.2h-9.7l-1.7,5.2h-2.7
		h-2.8L214.1,0.7z"/>
	<polygon fill="#FFFFFF" points="237.4,26.1 234.9,26.1 232.4,26.1 232.4,0.7 235.2,0.7 238,0.7 248.2,18.6 248.2,0.7 250.7,0.7 
		253.2,0.7 253.2,26.1 250.6,26.1 247.9,26.1 237.4,7.8 	"/>
	<path fill="#FFFFFF" d="M28.5,34.8v7.8h1.1c1.1,0,1.8-0.1,2.3-0.4c0.5-0.2,0.9-0.7,1.2-1.2c0.3-0.6,0.5-1.3,0.5-2.1
		c0-1.3-0.4-2.3-1.1-3c-0.7-0.6-1.7-1-3.2-1H28.5z M26.2,32.5h2.8c1.8,0,3.1,0.2,4,0.7c0.9,0.4,1.6,1.2,2.2,2.2
		c0.6,1,0.8,2.2,0.8,3.5c0,0.9-0.2,1.8-0.5,2.6c-0.3,0.8-0.7,1.5-1.3,2c-0.6,0.5-1.2,0.9-1.8,1.1c-0.6,0.2-1.8,0.3-3.4,0.3h-2.8
		V32.5z"/>
	<polygon fill="#FFFFFF" points="49.3,32.5 56,32.5 56,34.8 51.6,34.8 51.6,37 56,37 56,39.3 51.6,39.3 51.6,42.5 56,42.5 56,44.8 
		49.3,44.8 	"/>
	<polygon fill="#FFFFFF" points="68.4,32.5 70.8,32.5 73.9,41.3 77,32.5 79.4,32.5 75,44.8 72.7,44.8 	"/>
	<polygon fill="#FFFFFF" points="92.4,32.5 99.2,32.5 99.2,34.8 94.8,34.8 94.8,37 99.2,37 99.2,39.3 94.8,39.3 94.8,42.5 
		99.2,42.5 99.2,44.8 92.4,44.8 	"/>
	<polygon fill="#FFFFFF" points="112.5,32.5 114.8,32.5 114.8,42.6 118.2,42.6 118.2,44.8 112.5,44.8 	"/>
	<path fill="#FFFFFF" d="M136.9,34.5c-1.1,0-2.1,0.4-2.9,1.2c-0.8,0.8-1.2,1.8-1.2,3c0,1.4,0.5,2.4,1.5,3.2c0.8,0.6,1.6,0.9,2.6,0.9
		c1.1,0,2.1-0.4,2.8-1.2c0.8-0.8,1.2-1.8,1.2-3c0-1.2-0.4-2.2-1.2-3C139,34.9,138,34.5,136.9,34.5 M136.9,32.2
		c1.7,0,3.2,0.6,4.5,1.9c1.3,1.3,1.9,2.8,1.9,4.6c0,1.8-0.6,3.3-1.9,4.6c-1.2,1.2-2.7,1.9-4.5,1.9c-1.8,0-3.4-0.6-4.6-1.9
		c-1.2-1.3-1.8-2.8-1.8-4.6c0-1.2,0.3-2.3,0.9-3.2c0.6-1,1.4-1.8,2.3-2.3C134.7,32.5,135.8,32.2,136.9,32.2"/>
	<path fill="#FFFFFF" d="M159,37.3h0.7c0.6,0,1,0,1.2-0.1c0.2-0.1,0.4-0.2,0.5-0.4c0.1-0.2,0.2-0.4,0.2-0.7c0-0.5-0.2-0.8-0.6-1
		c-0.3-0.2-0.8-0.2-1.5-0.2H159V37.3z M156.6,32.5h2.5c1.3,0,2.3,0.1,2.9,0.4c0.6,0.2,1.1,0.7,1.4,1.2c0.3,0.6,0.5,1.2,0.5,2
		c0,0.9-0.2,1.6-0.7,2.1c-0.5,0.6-1.1,1-1.8,1.2c-0.5,0.1-1.3,0.2-2.5,0.2v5.2h-2.3V32.5z"/>
	<polygon fill="#FFFFFF" points="178.6,32.5 180.8,32.5 183.7,41.1 186.6,32.5 188.8,32.5 190.9,44.8 188.6,44.8 187.3,37.1 
		184.7,44.8 182.6,44.8 180.1,37.1 178.7,44.8 176.4,44.8 	"/>
	<polygon fill="#FFFFFF" points="203.9,32.5 210.6,32.5 210.6,34.8 206.2,34.8 206.2,37 210.6,37 210.6,39.3 206.2,39.3 206.2,42.5 
		210.6,42.5 210.6,44.8 203.9,44.8 	"/>
	<polygon fill="#FFFFFF" points="223.9,32.5 226.2,32.5 231.4,40.6 231.4,32.5 233.8,32.5 233.8,44.8 231.5,44.8 226.3,36.8 
		226.3,44.8 223.9,44.8 	"/>
	<polygon fill="#FFFFFF" points="246.5,32.5 253.3,32.5 253.3,34.8 251.1,34.8 251.1,44.8 248.7,44.8 248.7,34.8 246.5,34.8 	"/>
</g>
</svg>
